PathFileType	4	(X/Y/Z)	Walk8.trc
DataRate	CameraRate	NumFrames	NumMarkers	Units	OrigDataRate	OrigDataStartFrame	OrigNumFrames
200.000000	200.000000	4	59	mm	200.000000	362	515
Frame#	Times		RFHD		RACR1		RUA1		RFA1		RWRR		LACR1		LFA1		LWRU		RTH1		LTH4		CLAV		RWRU		LTH2		LFHD		LUA1		RBack		RCAR		LTH3		RElbow		T10		LASI		C7		LTH1		LLFC		LWRR		LTB2		STRN		LMT1		LTB4		LBHD		RTB1		RTH4		LMMAL		LTB1		LElbowM		LCAL		LCAR		RTH2		RPSI		LElbow		RBHD		LTB3		RTH3		LMT5		RLFC		RElbowM		RTB2		RTB4		LPSI		RMT1		RTB3		LLMAL		RASI		RCAL		RLMAL		RToe		LToe		RMMAL		RMT5
			X1	Y1	Z1	X2	Y2	Z2	X3	Y3	Z3	X4	Y4	Z4	X5	Y5	Z5	X6	Y6	Z6	X7	Y7	Z7	X8	Y8	Z8	X9	Y9	Z9	X10	Y10	Z10	X11	Y11	Z11	X12	Y12	Z12	X13	Y13	Z13	X14	Y14	Z14	X15	Y15	Z15	X16	Y16	Z16	X17	Y17	Z17	X18	Y18	Z18	X19	Y19	Z19	X20	Y20	Z20	X21	Y21	Z21	X22	Y22	Z22	X23	Y23	Z23	X24	Y24	Z24	X25	Y25	Z25	X26	Y26	Z26	X27	Y27	Z27	X28	Y28	Z28	X29	Y29	Z29	X30	Y30	Z30	X31	Y31	Z31	X32	Y32	Z32	X33	Y33	Z33	X34	Y34	Z34	X35	Y35	Z35	X36	Y36	Z36	X37	Y37	Z37	X38	Y38	Z38	X39	Y39	Z39	X40	Y40	Z40	X41	Y41	Z41	X42	Y42	Z42	X43	Y43	Z43	X44	Y44	Z44	X45	Y45	Z45	X46	Y46	Z46	X47	Y47	Z47	X48	Y48	Z48	X49	Y49	Z49	X50	Y50	Z50	X51	Y51	Z51	X52	Y52	Z52	X53	Y53	Z53	X54	Y54	Z54	X55	Y55	Z55	X56	Y56	Z56	X57	Y57	Z57	X58	Y58	Z58	X59	Y59	Z59

362	1.81	8.249	1411.6	38.751	-91.225	1207.5	156.47	-94.156	1070.4	244.33	-13.144	834.51	297.83	17.759	736.78	265.87	-73.911	1200.4	-210.87	34.19	849.97	-309.23	75.799	747.69	-315.77	-71.435	624.67	194.72	-120.68	552.16	-213.99	-8.3763	1174.7	-18.838	-21.383	733.86	326.77	-67.717	555.31	-188.67	23.676	1420.8	-56.602	-38.253	1037.7	-276.21	-203.68	1137.5	88.522	32.198	682.74	320.33	-129.6	468.11	-189.98	-87.035	942.71	282.31	-236.74	1057.1	-18.322	-37.874	800.38	-177.54	-150.84	1258	-28.745	-112.55	637.3	-228.69	-124.91	365.69	-158.09	107.09	772.73	-267.54	-242.24	217.47	-142.39	42.818	1068	-12.344	-237.26	25.272	-63.955	-225.55	206.83	-83.479	-102.74	1345.3	-93.283	60.224	302.65	65.097	-49.211	543.37	172.53	-341.2	119.82	-29.585	-162.77	267.35	-90.779	-94.475	887.77	-239.53	-410.16	131.76	-63.931	132.58	727.15	-309.51	4.6215	565.72	156.14	-274.3	835.29	54.991	-60.297	916.92	-301.81	-122.42	1341.1	38.28	-280.59	144.85	-77.987	-22.272	465.62	141.89	-325.86	35.23	-123.45	-14.759	386.38	118.17	-130.69	904.67	210.68	35.819	206.99	105.75	70.126	216.37	55.752	-289.99	843.35	-51.342	169.65	47.556	15.282	85.908	134.25	46.703	-368.4	116.71	-108.17	-13.288	806.36	140.06	3.7223	26.89	30.953	53.063	59.487	79.672	217.37	59.447	52.752	-284.02	34.434	-40.02	65.608	73.081	-1.7504	143.76	30.509	101.61
363	1.815	14.245	1411.6	39.945	-84.532	1206.9	157.97	-87.282	1069.6	245.43	-6.1313	833.67	298.52	24.664	735.93	266.52	-68.349	1200.5	-209.57	38.801	849.96	-308.3	80.091	747.53	-315.05	-63.826	625.56	194.53	-112.27	551.97	-214.01	-2.2828	1174.6	-17.639	-14.418	733.04	327.46	-59.47	555.62	-188.45	29.537	1420.9	-55.422	-33.135	1037.6	-275.06	-197.21	1137.3	90.27	39.121	681.94	320.99	-120.32	467.75	-190.32	-79.937	941.92	283.1	-230.72	1057.1	-16.795	-32.022	800.43	-176.65	-144.65	1258	-27.052	-105.07	637.22	-228.41	-114.99	365.29	-158.81	111.48	772.47	-266.84	-234.85	219.28	-143.12	48.976	1067.9	-11.139	-237.22	25.243	-63.993	-218.09	208.04	-84.344	-96.821	1345.2	-91.95	65.092	302	65.269	-41.442	544.38	172.23	-335.53	123.49	-30.293	-154.1	267.25	-91.724	-89.879	887.99	-238.67	-403.86	137.77	-64.469	136.83	726.98	-308.93	12.041	566.94	155.2	-268.11	835	55.709	-55.523	917.11	-300.9	-116.31	1341	39.625	-274.49	147.27	-78.838	-14.509	466.59	141.72	-323.77	37.645	-123.58	-8.6183	386.78	118.71	-123.62	903.93	211.48	39.574	206.64	105.96	73.706	215.6	55.796	-283.95	842.35	-50.78	170.64	44.518	14.867	88.259	133.27	46.563	-363	121.21	-108.7	-6.2804	805.88	139.94	4.109	27.587	30.978	54.227	59.212	79.631	218.92	55.341	52.211	-282.84	34.821	-40.097	66.865	72.382	-1.8912	144.31	28.647	101.8
364	1.82	20.244	1411.7	41.149	-77.796	1206.4	159.44	-80.313	1068.9	246.5	0.92966	832.89	299.15	31.608	735.13	267.12	-62.741	1200.7	-208.29	43.311	849.95	-307.35	84.208	747.33	-314.34	-56.166	626.57	194.38	-103.67	551.83	-214.03	3.8024	1174.6	-16.457	-7.4052	732.26	328.1	-51.046	556.03	-188.2	35.407	1421	-54.23	-28.105	1037.6	-273.95	-190.75	1137.2	91.994	46.093	681.2	321.6	-110.77	467.45	-190.66	-72.773	941.19	283.85	-224.74	1057.3	-15.31	-26.173	800.52	-175.73	-138.43	1258.2	-25.382	-97.457	637.19	-228.13	-104.77	364.99	-159.51	115.73	772.16	-266.15	-227.09	221.18	-143.85	55.119	1067.8	-9.9073	-236.94	25.235	-64.128	-210.25	209.33	-85.226	-90.892	1345.1	-90.622	69.858	301.36	65.489	-33.64	545.5	172.01	-329.38	127.2	-31.017	-145.08	267.23	-92.684	-85.328	888.27	-237.75	-397.05	143.84	-64.995	140.9	726.73	-308.37	19.475	568.27	154.28	-261.98	834.76	56.366	-50.825	917.34	-299.95	-110.19	1340.9	40.961	-267.97	149.78	-79.708	-6.7271	467.67	141.65	-321.29	40.256	-123.75	-2.4937	387.22	119.26	-116.52	903.24	212.26	43.216	206.31	106.21	77.148	214.87	55.871	-277.93	841.35	-50.273	171.45	41.763	14.468	90.458	132.34	46.445	-357.13	125.81	-109.23	0.68984	805.59	139.85	4.4219	28.237	31.023	55.259	58.999	79.615	220.25	51.617	51.665	-281.35	35.334	-40.218	67.958	71.768	-2.0134	144.73	27.061	102.02
365	1.825	26.247	1411.8	42.359	-71.025	1206	160.89	-73.252	1068.2	247.54	8.0364	832.17	299.74	38.592	734.39	267.66	-57.087	1200.9	-207.02	47.723	849.93	-306.39	88.154	747.09	-313.64	-48.498	627.7	194.3	-94.878	551.76	-214.04	9.8744	1174.6	-15.298	-0.34668	731.56	328.7	-42.467	556.53	-187.89	41.286	1421.1	-53.028	-23.156	1037.6	-272.86	-184.29	1137.1	93.683	53.114	680.53	322.16	-100.98	467.21	-191	-65.551	940.52	284.56	-218.78	1057.5	-13.875	-20.326	800.65	-174.78	-132.19	1258.4	-23.746	-89.725	637.22	-227.85	-94.302	364.78	-160.18	119.83	771.79	-265.48	-218.99	223.17	-144.58	61.243	1067.8	-8.657	-236.35	25.255	-64.38	-202.06	210.68	-86.11	-84.955	1345.1	-89.306	74.506	300.74	65.747	-25.857	546.72	171.89	-322.8	130.94	-31.746	-135.77	267.29	-93.645	-80.816	888.61	-236.78	-389.77	149.89	-65.505	144.78	726.41	-307.85	26.885	569.67	153.41	-255.91	834.6	56.961	-46.199	917.6	-298.98	-104.07	1340.8	42.287	-261.04	152.34	-80.584	1.0176	468.82	141.7	-318.4	43.051	-123.94	3.5977	387.7	119.83	-109.37	902.62	213	46.737	206.01	106.5	80.447	214.17	55.965	-271.93	840.35	-49.821	172.11	39.308	14.084	92.508	131.46	46.334	-350.8	130.45	-109.76	7.6155	805.48	139.81	4.6747	28.828	31.083	56.17	58.841	79.618	221.38	48.3	51.116	-279.5	35.997	-40.397	68.896	71.235	-2.1216	145.05	25.747	102.26
